<svg xmlns="http://www.w3.org/2000/svg" viewBox="0 0 356 356" fill="none">
	<defs>
		<linearGradient id="brandInk" x1="26" y1="18" x2="330" y2="332" gradientUnits="userSpaceOnUse">
			<stop stop-color="#314F7B" />
			<stop offset="1" stop-color="#172B49" />
		</linearGradient>
	</defs>
	<rect width="356" height="356" fill="#FFFFFF" />
	<g fill="url(#brandInk)">
		<path d="M178 22C91.8 22 22 91.8 22 178s69.8 156 156 156 156-69.8 156-156S264.2 22 178 22zm0 54c56.3 0 102 45.7 102 102s-45.7 102-102 102S76 234.3 76 178 121.7 76 178 76z"/>
		<path d="M89 201c15 0 16 26 25 26 10 0 11-51 23-51 10 0 11 68 28 82 8 7 20 10 33 10 30 0 47-21 47-61 0-5 4-8 8-8 5 0 8 3 8 8 0 50-26 79-63 79-17 0-32-5-45-15-20-16-26-44-31-73-3 14-8 27-16 27-10 0-10-24-17-24z"/>
		<rect x="178" y="131" width="35" height="81" rx="17.5"/>
		<rect x="199" y="158" width="26" height="7" rx="3.5"/>
		<rect x="199" y="173" width="26" height="7" rx="3.5"/>
		<rect x="199" y="188" width="26" height="7" rx="3.5"/>
		<path d="M159 205c0 23 16 41 35 41 20 0 35-18 35-41h15c0 32-21 54-47 60v38h-18v-38c-26-5-47-28-47-60h27z"/>
	</g>
</svg>