<svg xmlns="http://www.w3.org/2000/svg" viewBox="0 0 1351 471" fill="none">
  <defs>
    <linearGradient id="brandInk" x1="90" y1="32" x2="1261" y2="439" gradientUnits="userSpaceOnUse">
      <stop stop-color="#314F7B" />
      <stop offset="1" stop-color="#172B49" />
    </linearGradient>
  </defs>
  <rect width="1351" height="471" fill="#FFFFFF" />
  <g fill="url(#brandInk)">
    <path d="M178 28C79.7 28 0 107.7 0 206s79.7 178 178 178 178-79.7 178-178S276.3 28 178 28zm0 62c64.6 0 116 52.4 116 116s-51.4 116-116 116S62 270.6 62 206 113.4 90 178 90z"/>
    <path d="M76 233c18 0 19 29 30 29 12 0 13-56 27-56 12 0 13 75 32 91 10 8 22 12 38 12 34 0 54-25 54-68 0-5 4-9 9-9 6 0 10 4 10 9 0 56-29 88-73 88-20 0-38-5-52-16-23-18-30-49-35-81-3 15-8 30-17 30-12 0-13-29-23-29z"/>
    <rect x="180" y="153" width="40" height="93" rx="20"/>
    <rect x="205" y="184" width="31" height="8" rx="4"/>
    <rect x="205" y="201" width="31" height="8" rx="4"/>
    <rect x="205" y="218" width="31" height="8" rx="4"/>
    <path d="M159 238c0 27 19 47 41 47 23 0 41-20 41-47h18c0 37-25 63-55 69v44h-20v-44c-31-6-55-32-55-69h30z"/>
  </g>
  <text x="397" y="406" fill="url(#brandInk)" font-family="Malgun Gothic, Apple SD Gothic Neo, Noto Sans KR, sans-serif" font-size="318" font-weight="800" letter-spacing="-28">아우성</text>
</svg>